<?xml version="1.0" encoding="UTF-8" standalone="no"?>
<svg width="224px" height="48px" viewBox="0 0 224 48" version="1.1" xmlns="http://www.w3.org/2000/svg" xmlns:xlink="http://www.w3.org/1999/xlink">
    <!-- Generator: Sketch 40.1 (33804) - http://www.bohemiancoding.com/sketch -->
    <title>Group 142</title>
    <desc>Created with Sketch.</desc>
    <defs></defs>
    <g id="Page-1" stroke="none" stroke-width="1" fill="none" fill-rule="evenodd">
        <g id="ng-Poland" transform="translate(-25.000000, -18.000000)">
            <g id="Group-142" transform="translate(25.000000, 18.000000)">
                <path d="M22.6437233,47.7826588 C22.3161761,47.7826588 21.9893333,47.7050118 21.6899623,47.5504235 L4.10103145,38.4396 C3.47622642,38.1163059 3.05781132,37.4979529 2.98807547,36.7963059 L0.0725534591,7.29183529 C-0.0295849057,6.25983529 0.642415094,5.31042353 1.64759748,5.06477647 L22.1520503,0.0607764706 C22.3147673,0.0212470588 22.4795975,0.00218823529 22.6437233,0.00218823529 C23.1044025,0.00218823529 23.5573333,0.155364706 23.9271447,0.446188235 C24.4279748,0.841482353 24.7203019,1.44430588 24.7203019,2.08312941 L24.7203019,4.74995294 L43.2080503,7.41748235 C44.3076226,7.57630588 45.0881006,8.57442353 44.9782138,9.68195294 L42.2986667,36.7963059 C42.2296352,37.4979529 41.8105157,38.1163059 41.1857107,38.4396 L23.5974843,47.5504235 C23.2981132,47.7050118 22.9712704,47.7826588 22.6437233,47.7826588" id="Fill-72" fill="#FFFFFF"></path>
                <g id="Group" transform="translate(56.352201, 12.705882)">
                    <polygon id="Fill-74" fill="#DD4050" points="13.8365918 21.1893782 5.24816185 9.44994958 5.24816185 21.1893782 0.0104474254 21.1893782 0.0104474254 0.905142857 5.40110354 0.905142857 13.6233351 12.0658824 13.6233351 0.905142857 18.891207 0.905142857 18.891207 21.1893782"></polygon>
                    <path d="M21.5085563,11.0623193 C21.5085563,4.6149916 26.4414644,0.569546218 32.5020483,0.569546218 C37.0396775,0.569546218 39.7797033,2.9725042 41.1809507,5.49593277 L36.7951862,7.77734454 C36.0347859,6.4392605 34.4816738,5.19260504 32.5020483,5.19260504 C29.1825673,5.19260504 26.8378204,7.74722689 26.8378204,11.0623193 C26.8378204,14.3774118 29.1825673,16.9320336 32.5020483,16.9320336 C33.9937683,16.9320336 35.5167229,16.3243025 36.2480427,15.7154958 L36.2480427,14.1332437 L31.6791789,14.1332437 L31.6791789,9.54137815 L41.4857571,9.54137815 L41.4857571,17.6010756 C39.2928748,20.0040336 36.3395923,21.5550924 32.5020483,21.5550924 C26.4414644,21.5550924 21.5085563,17.5096471 21.5085563,11.0623193" id="Fill-76" fill="#DD4050"></path>
                    <path d="M56.465965,7.65579832 C56.465965,6.25640336 55.4309159,5.46581513 54.0296685,5.46581513 L49.7968456,5.46581513 L49.7968456,9.81566387 L54.0296685,9.81566387 C55.4309159,9.81566387 56.465965,9.024 56.465965,7.65579832 L56.465965,7.65579832 Z M44.5580541,21.1893782 L44.5580541,0.905142857 L54.7297537,0.905142857 C59.2975404,0.905142857 61.795229,3.97606723 61.795229,7.65579832 C61.795229,11.3054118 59.2975404,14.3774118 54.7297537,14.3774118 L49.7968456,14.3774118 L49.7968456,21.1893782 L44.5580541,21.1893782 Z" id="Fill-78" fill="#FFFFFF"></path>
                    <path d="M79.4863823,11.0623193 C79.4863823,7.74722689 77.3247346,5.19260504 73.974019,5.19260504 C70.5942231,5.19260504 68.4314983,7.74722689 68.4314983,11.0623193 C68.4314983,14.3472941 70.5942231,16.9320336 73.974019,16.9320336 C77.3247346,16.9320336 79.4863823,14.3472941 79.4863823,11.0623193 M63.1033113,11.0623193 C63.1033113,4.88820168 67.7615706,0.569546218 73.974019,0.569546218 C80.1864675,0.569546218 84.8156463,4.88820168 84.8156463,11.0623193 C84.8156463,17.2353613 80.1864675,21.5550924 73.974019,21.5550924 C67.7615706,21.5550924 63.1033113,17.2353613 63.1033113,11.0623193" id="Fill-80" fill="#FFFFFF"></path>
                    <polygon id="Fill-82" fill="#FFFFFF" points="87.4622915 21.1893782 87.4622915 0.905142857 92.7000059 0.905142857 92.7000059 16.6276303 100.861922 16.6276303 100.861922 21.1893782"></polygon>
                    <path d="M112.340304,6.07483697 L109.752143,13.7085849 L114.928465,13.7085849 L112.340304,6.07483697 Z M117.365839,21.1895933 L116.35987,18.2703328 L108.350895,18.2703328 L107.346004,21.1895933 L101.408204,21.1895933 L109.052058,0.904282353 L115.629628,0.904282353 L123.303639,21.1895933 L117.365839,21.1895933 Z" id="Fill-84" fill="#FFFFFF"></path>
                    <polygon id="Fill-86" fill="#FFFFFF" points="138.61978 21.1893782 130.03135 9.44994958 130.03135 21.1893782 124.793635 21.1893782 124.793635 0.905142857 130.184291 0.905142857 138.406523 12.0658824 138.406523 0.905142857 143.674395 0.905142857 143.674395 21.1893782"></polygon>
                    <path d="M161.487148,11.0317714 C161.487148,7.89953613 159.599072,5.46538487 155.883235,5.46538487 L152.563754,5.46538487 L152.563754,16.6272 L155.853077,16.6272 C159.415972,16.6272 161.487148,14.0424605 161.487148,11.0317714 L161.487148,11.0317714 Z M147.326039,21.1889479 L147.326039,0.904712605 L155.853077,0.904712605 C162.248625,0.904712605 166.846569,4.73610756 166.846569,11.0317714 C166.846569,17.3274353 162.248625,21.1889479 155.883235,21.1889479 L147.326039,21.1889479 Z" id="Fill-88" fill="#FFFFFF"></path>
                </g>
                <polygon id="Fill-90" fill="#DD4050" points="22.6435824 45.7018588 5.05465157 36.5910353 2.13912956 7.08727059 22.6435824 2.08327059"></polygon>
                <polygon id="Fill-92" fill="#A41539" points="22.6435824 45.7018588 40.2325132 36.5910353 42.9120604 9.47738824 22.6435824 6.55221176"></polygon>
                <path d="M22.6435824,27.0875294 L19.3568403,27.0875294 L22.6435824,19.3905882 L25.9303245,27.0875294 L22.6435824,27.0875294 Z M34.0858969,36.2767059 L22.6435824,11.3802353 L11.2012679,36.2767059 L15.4333182,36.2767059 L17.7472805,30.8576471 L22.6435824,30.8576471 L27.5398843,30.8576471 L29.8538465,36.2767059 L34.0858969,36.2767059 Z" id="Fill-94" fill="#FFFFFF"></path>
                <polygon id="Fill-96" fill="#F2B39F" points="22.6435824 11.3799529 22.6435824 19.3910118 25.9303245 27.0872471 22.6435824 27.0872471 22.6435824 30.8573647 27.5398843 30.8573647 29.8538465 36.2764235 34.0858969 36.2764235"></polygon>
                <polygon id="Fill-98" fill="#A41539" points="22.6435824 2.08305882 2.13912956 7.08705882 5.05465157 36.5908235 4.66511698 9.10517647"></polygon>
            </g>
        </g>
    </g>
</svg>