<?xml version="1.0" standalone="no"?>
<!DOCTYPE svg PUBLIC "-//W3C//DTD SVG 20010904//EN"
 "http://www.w3.org/TR/2001/REC-SVG-20010904/DTD/svg10.dtd">
<svg version="1.0" xmlns="http://www.w3.org/2000/svg"
 width="16.000000pt" height="16.000000pt" viewBox="0 0 16.000000 16.000000"
 preserveAspectRatio="xMidYMid meet">
<metadata>
Created by potrace 1.11, written by Peter Selinger 2001-2013
</metadata>
<g transform="translate(0.000000,16.000000) scale(0.011111,-0.011111)"
fill="#000000" stroke="none">
<path d="M595 1409 c-60 -16 -123 -31 -140 -34 -134 -26 -363 -91 -383 -109
-24 -21 -25 -37 -7 -166 2 -14 6 -61 10 -104 4 -43 8 -86 10 -95 1 -9 6 -54
10 -101 8 -100 12 -145 20 -220 8 -77 13 -126 20 -195 10 -93 -29 -65 377
-274 108 -55 207 -101 218 -101 19 0 200 90 493 245 44 23 83 48 88 57 4 8 10
43 13 79 4 35 8 84 11 109 2 25 7 72 10 105 3 33 8 76 10 95 2 19 7 69 10 110
4 41 8 86 10 100 2 14 6 57 10 95 3 39 8 93 11 121 5 46 3 53 -20 71 -15 12
-50 24 -83 28 -78 10 -77 10 -243 35 -80 11 -161 23 -180 26 -81 11 -80 10
-80 64 0 56 -24 91 -62 89 -13 0 -72 -14 -133 -30z"/>
</g>
</svg>
